<?xml version="1.0" encoding="utf-8"?>
<svg id="Layer_1" data-name="Layer 1" xmlns="http://www.w3.org/2000/svg" viewBox="0 0 1080 1080">
  <defs>
    <style>
      .cls-1 {
        fill: #fff;
      }
    </style>
  </defs>
  <rect class="cls-1" width="1080" height="1080"/>
  <g>
    <path d="M241.39,497.94v82.28h13.83v-82.28h-13.83Z" style=""/>
    <path d="M266.16,497.94v13.48h13.83v-13.48h-13.83ZM266.16,520.07v60.16h13.83v-60.16h-13.83Z" style=""/>
    <path d="M339.86,524.62c-2.96-4.27-8.29-6.4-15.96-6.4-8.76,0-15.14,3.27-19.13,9.8v-7.96h-13.83v60.16h13.83v-35.72c0-4.53,1.42-8.1,4.26-10.72,2.85-2.62,6.46-3.92,10.83-3.92s6.96,1.09,8.41,3.28c1.46,2.2,2.2,5.71,2.2,10.55v36.53h13.83v-36.53c0-8.45-1.49-14.81-4.43-19.07Z" style=""/>
    <path d="M404.16,524.62c-2.96-4.27-8.28-6.4-15.96-6.4-8.76,0-15.13,3.27-19.13,9.8v-30.08h-13.83v82.28h13.83v-35.72c0-4.53,1.42-8.1,4.27-10.72,2.84-2.62,6.45-3.92,10.83-3.92,4.15,0,6.95,1.09,8.41,3.28,1.46,2.2,2.19,5.71,2.19,10.55v36.53h13.83v-36.53c0-8.45-1.47-14.81-4.43-19.07Z" style=""/>
    <path d="M463.5,524.62c-4.49-4.27-11-6.4-19.54-6.4-5.07,0-9.41.86-13.02,2.59-3.61,1.73-6.42,3.94-8.41,6.63-2,2.69-3.23,5.53-3.68,8.52l13.02,1.39c.38-2.31,1.6-4.17,3.63-5.59,2.03-1.42,4.85-2.14,8.46-2.14,4.22,0,7.32.92,9.28,2.76,1.95,1.84,3.01,5.11,3.17,9.8l-9.45,1.15c-6.52.69-11.69,1.51-15.5,2.48-3.79.96-6.81,2.52-9.05,4.67-4.22,4.14-6.34,8.72-6.34,13.7,0,2.92.79,5.73,2.37,8.42,1.57,2.69,3.89,4.91,6.96,6.68,3,1.84,6.42,2.76,10.27,2.76s7.39-.86,11.11-2.59c3.73-1.73,6.94-4.09,9.63-7.09v7.83h13.83v-36.64c0-8.37-2.25-14.7-6.74-18.96ZM456.42,553.83c0,3.76-.88,6.95-2.65,9.57-1.77,2.6-3.99,4.54-6.68,5.82-2.69,1.26-5.34,1.9-7.96,1.9-2.46,0-4.42-.5-5.87-1.5-.93-.7-1.66-1.6-2.2-2.71-.54-1.12-.8-2.28-.8-3.51,0-1.15.22-2.27.69-3.34.45-1.08,1.07-2,1.84-2.78,1.39-1.3,3.27-2.22,5.65-2.76,2.38-.54,6.1-1.12,11.17-1.73l6.8-.8v1.84Z" style=""/>
    <path d="M522.91,497.94v29.51c-4.69-6.15-10.72-9.22-18.09-9.22-5.3,0-9.93,1.26-13.89,3.81-3.97,2.53-7,6.2-9.11,11-2.11,4.8-3.17,10.46-3.17,16.99s1.18,12.22,3.51,17.06c2.35,4.84,5.54,8.55,9.57,11.12,4.04,2.57,8.47,3.86,13.31,3.86,7.45,0,13.41-2.8,17.87-8.41v6.57h13.83v-82.28h-13.83ZM519.05,565.47c-2.58,3.45-6.36,5.18-11.36,5.18-10.14,0-15.21-6.88-15.21-20.63,0-6.68,1.29-11.75,3.87-15.21,2.57-3.45,6.35-5.18,11.35-5.18,10.14,0,15.21,6.8,15.21,20.4,0,6.84-1.29,11.98-3.86,15.45Z" style=""/>
    <path d="M591.76,524.62c-4.49-4.27-11-6.4-19.52-6.4-5.07,0-9.42.86-13.03,2.59-3.61,1.73-6.41,3.94-8.41,6.63-2,2.69-3.23,5.53-3.68,8.52l13.02,1.39c.38-2.31,1.6-4.17,3.63-5.59,2.03-1.42,4.85-2.14,8.47-2.14,4.21,0,7.31.92,9.27,2.76,1.95,1.84,3.01,5.11,3.17,9.8l-9.44,1.15c-6.53.69-11.7,1.51-15.51,2.48-3.79.96-6.82,2.52-9.05,4.67-4.22,4.14-6.34,8.72-6.34,13.7,0,2.92.79,5.73,2.37,8.42,1.57,2.69,3.89,4.91,6.97,6.68,3,1.84,6.41,2.76,10.25,2.76s7.39-.86,11.11-2.59c3.73-1.73,6.94-4.09,9.63-7.09v7.83h13.83v-36.64c0-8.37-2.25-14.7-6.74-18.96ZM584.67,553.83c0,3.76-.88,6.95-2.65,9.57-1.77,2.6-3.99,4.54-6.68,5.82-2.69,1.26-5.34,1.9-7.96,1.9-2.46,0-4.41-.5-5.87-1.5-.92-.7-1.66-1.6-2.2-2.71-.53-1.12-.8-2.28-.8-3.51,0-1.15.22-2.27.69-3.34.47-1.08,1.08-2,1.84-2.78,1.39-1.3,3.27-2.22,5.65-2.76s6.1-1.12,11.17-1.73l6.8-.8v1.84Z" style=""/>
    <path d="M691.21,524.5c-2.65-4.19-7.47-6.27-14.46-6.27-4.3,0-8.1.96-11.41,2.89-3.3,1.92-5.96,4.53-7.94,7.83-1.23-3.54-3.17-6.21-5.82-8.02-2.65-1.79-6.29-2.7-10.89-2.7-3.77,0-7.12.79-10.08,2.36-2.96,1.58-5.4,3.79-7.32,6.63v-7.15h-13.83v60.16h13.83v-36.53c0-4.46,1.26-7.83,3.81-10.14,2.53-2.31,5.76-3.45,9.68-3.45,3.46,0,5.76,1.03,6.91,3.11,1.15,2.08,1.73,5.57,1.73,10.49v36.53h13.83v-36.53c0-4.46,1.26-7.83,3.81-10.14,2.53-2.31,5.76-3.45,9.68-3.45,3.38,0,5.66,1.03,6.85,3.11,1.19,2.08,1.79,5.57,1.79,10.49v36.53h13.83v-36.53c0-8.61-1.33-15.01-3.98-19.19Z" style=""/>
    <path d="M763.05,547.03c0-5.14-1.2-9.91-3.62-14.29-2.42-4.37-5.88-7.88-10.38-10.54-4.49-2.65-9.74-3.98-15.73-3.98-8.99,0-16.18,2.7-21.6,8.13-5.43,5.42-8.13,13.3-8.13,23.67,0,6.61,1.25,12.33,3.75,17.17,2.49,4.85,6.07,8.53,10.72,11.06,4.64,2.54,10.08,3.81,16.31,3.81s12.06-1.34,16.82-4.03,8.25-6.39,10.49-11.06l-11.87-4.38c-1.68,2.85-3.76,4.96-6.23,6.34-2.46,1.39-5.53,2.08-9.21,2.08-10.14,0-15.75-5.65-16.83-16.93h45.41l.11-7.04ZM717.77,543.69c.77-5,2.44-8.66,5.02-11,2.57-2.35,6.08-3.52,10.54-3.52s7.96,1.35,10.72,4.04,4.42,6.19,4.96,10.49h-31.24Z" style=""/>
    <path d="M820.38,524.62c-2.96-4.27-8.28-6.4-15.95-6.4-8.77,0-15.14,3.27-19.13,9.8v-7.96h-13.84v60.16h13.84v-35.72c0-4.53,1.41-8.1,4.26-10.72,2.84-2.62,6.45-3.92,10.83-3.92,4.15,0,6.95,1.09,8.41,3.28,1.46,2.2,2.19,5.71,2.19,10.55v36.53h13.83v-36.53c0-8.45-1.47-14.81-4.43-19.07Z" style=""/>
    <path d="M869.99,580.23c-4.92,1.22-9.15,1.85-12.68,1.85-11.98,0-17.98-6.53-17.98-19.59v-32.05h-10.01v-10.37h10.01v-16.01h13.83v58.43c0,2.59.65,4.66,1.92,6.15,1.25,1.51,3.27,2.26,6.05,2.26,1.92,0,4.13-.38,6.67-1.15l2.18,10.49Z" style=""/>
    <polygon points="871.77 520.06 865.94 530.43 857.01 530.43 857.01 520.06 871.77 520.06" style="fill: rgb(64, 206, 42);"/>
    <path d="M930.49,547.03c0-5.14-1.2-9.91-3.62-14.29-2.43-4.37-5.88-7.88-10.38-10.54-4.49-2.65-9.74-3.98-15.73-3.98-8.99,0-16.2,2.7-21.61,8.13-5.42,5.42-8.12,13.3-8.12,23.67,0,6.61,1.24,12.33,3.75,17.17,2.49,4.85,6.07,8.53,10.71,11.06,4.65,2.54,10.09,3.81,16.31,3.81s12.06-1.34,16.83-4.03c4.75-2.69,8.25-6.39,10.47-11.06l-11.86-4.38c-1.69,2.85-3.77,4.96-6.23,6.34-2.46,1.39-5.53,2.08-9.22,2.08-10.14,0-15.74-5.65-16.82-16.93h45.41l.11-7.04ZM885.2,543.69c.76-5,2.43-8.66,5.01-11,2.58-2.35,6.09-3.52,10.55-3.52s7.94,1.35,10.72,4.04c2.76,2.69,4.41,6.19,4.95,10.49h-31.23Z" style=""/>
    <g>
      <polygon points="182.86 562.97 180.27 570.29 176.73 580.23 161.4 580.23 167.89 562.97 182.86 562.97" style=""/>
      <polygon points="230.44 497.93 230.44 580.23 216.62 580.23 216.62 511.76 200.91 511.76 200.12 514.06 198.04 519.94 195.37 527.53 195.08 528.3 190.14 542.3 204.79 542.3 204.79 556.13 149.51 556.13 154.68 542.3 175.63 542.3 187.08 511.76 192.27 497.93 230.44 497.93" style=""/>
    </g>
  </g>
</svg>