<svg xmlns="http://www.w3.org/2000/svg" viewBox="280 330 520 440" width="80" height="80">
  <rect x="0" y="0" width="1080" height="1080" fill="#ffffff" rx="12"/>
  <polygon points="463.29 648.04 451.58 681.14 435.58 726.12 366.22 726.12 395.6 648.04 463.29 648.04" fill="#191919"/>
  <polygon points="678.49 353.88 678.49 726.12 615.96 726.12 615.96 416.46 544.93 416.46 541.37 426.85 531.93 453.45 519.88 487.77 518.55 491.27 496.23 554.58 584.94 554.58 584.94 617.11 312.46 617.11 335.84 554.58 430.58 554.58 482.4 416.46 505.83 353.88 678.49 353.88" fill="#191919"/>
  <polygon points="767.54 617.13 744.16 554.58 678.49 554.58 678.49 617.13 767.54 617.13" fill="#6dcb49"/>
</svg>
